<svg xmlns="http://www.w3.org/2000/svg" aria-hidden="true" overflow="hidden" style="position:absolute;width:0;height:0">
  <defs>
    <symbol id="icon-main-logo" viewBox="0 0 100 14">
  <path d="M0 14V0H2.49446L8.65615 4.54266H8.74922L14.9109 0H17.4054V14H14.4269V3.91608L10.2012 6.89231V14H7.22276V6.89231L2.97846 3.91608V14H0Z" />
  <path d="M20.2013 14V0H23.1798V14H20.2013Z" />
  <path d="M25.9684 14V0H28.9841L38.4035 10.0643V0H41.382V14H38.3663L28.9469 3.91608V14H25.9684Z" />
  <path d="M44.17 14V0H47.1485V14H44.17Z" />
  <path d="M49.9372 14V0H52.4316L58.5933 4.54266H58.6864L64.8481 0H67.3425V14H64.3641V3.91608L60.1384 6.89231V14H57.1599V6.89231L52.9156 3.91608V14H49.9372Z" />
  <path d="M69.0216 14L75.0157 0H79.6137L85.6079 14H82.3688L81.1029 11.0434H73.5265L72.2606 14H69.0216ZM74.6062 8.4979H80.0232L77.4357 2.44755H77.1937L74.6062 8.4979Z" />
  <path d="M87.2857 14V0H90.2642V11.4545H100V14H87.2857Z" />
  </symbol>
  <symbol id="icon-burger" viewBox="0 0 32 32" >
  <path d="M28 13.3333H4"  stroke-width="2" stroke-linecap="round" stroke-linejoin="round"/>
  <path d="M28 8H4"  stroke-width="2" stroke-linecap="round" stroke-linejoin="round"/>
  <path d="M28 18.6667H4"  stroke-width="2" stroke-linecap="round" stroke-linejoin="round"/>
  <path d="M28 24H4"  stroke-width="2" stroke-linecap="round" stroke-linejoin="round"/>
  </symbol>
  <symbol id="icon-close" viewBox="0 0 32 32">
  <path d="M24 8L8 24"  stroke-width="2" stroke-linecap="round" stroke-linejoin="round"/>
  <path d="M8 8L24 24"  stroke-width="2" stroke-linecap="round" stroke-linejoin="round"/>
</symbol>
    <symbol id="icon-ph_youtube-logo" viewBox="0 0 32 32">
      <path d="m20.55 15.162-6-4c-.152-.096-.326-.152-.506-.161s-.359.029-.519.111A1.004 1.004 0 0 0 13 12v8c-.001.182.047.36.139.517s.226.285.386.371c.148.074.31.112.475.112a1.05 1.05 0 0 0 .55-.162l6-4a1.003 1.003 0 0 0 .454-.837 1.002 1.002 0 0 0-.454-.837zM15 18.138v-4.275l3.2 2.138-3.2 2.138zm14.288-9.413a2.937 2.937 0 0 0-1.813-2.038C23.2 5.037 16.375 5.049 16 5.049S8.8 5.036 4.525 6.687a2.944 2.944 0 0 0-1.812 2.038c-.325 1.237-.712 3.512-.712 7.275s.388 6.038.712 7.275a2.946 2.946 0 0 0 1.812 2.038c4.1 1.588 10.525 1.638 11.387 1.638h.175c.862 0 7.288-.05 11.388-1.638a2.944 2.944 0 0 0 1.813-2.038C29.613 22.037 30 19.762 30 16s-.388-6.038-.712-7.275zm-1.938 14.05a.984.984 0 0 1-.588.675C22.8 24.975 16.075 24.95 16 24.95h-.012c-.063 0-6.788.025-10.75-1.5a.972.972 0 0 1-.588-.675C4.35 21.637 4 19.55 4 16s.35-5.638.65-6.775a.978.978 0 0 1 .588-.675c3.813-1.463 10.213-1.5 10.738-1.5h.025c.075 0 6.8-.025 10.762 1.5a.972.972 0 0 1 .588.675c.3 1.137.65 3.225.65 6.775s-.35 5.638-.65 6.775z"/>
    </symbol>
    <symbol id="icon-ph_instagram-logo" viewBox="0 0 32 32">
      <path d="M16 10a5.998 5.998 0 0 0-4.242 10.243 5.996 5.996 0 0 0 6.539 1.301 5.999 5.999 0 0 0-2.296-11.543zm0 10a4.004 4.004 0 0 1-3.695-2.469A4 4 0 1 1 20 16a4.014 4.014 0 0 1-4 4zm5.5-16.5h-11a7 7 0 0 0-7 7v11a7 7 0 0 0 7 7h11a6.997 6.997 0 0 0 7-7v-11a6.997 6.997 0 0 0-7-7zm5 18c0 .657-.129 1.307-.381 1.913s-.62 1.158-1.084 1.622A4.993 4.993 0 0 1 21.5 26.5h-11c-.657 0-1.307-.129-1.913-.381s-1.158-.62-1.622-1.084A4.993 4.993 0 0 1 5.5 21.5v-11a4.997 4.997 0 0 1 5-5h11c.657 0 1.307.129 1.913.381s1.158.62 1.622 1.084A5.004 5.004 0 0 1 26.5 10.5v11zM24 9.5a1.495 1.495 0 0 1-.926 1.385 1.496 1.496 0 0 1-1.635-.326 1.5 1.5 0 1 1 2.559-1.061z"/>
    </symbol>
    <symbol id="icon-ph_facebook-logo" viewBox="0 0 32 32">
      <path d="M29 16c0-2.571-.762-5.085-2.191-7.222S23.35 4.974 20.975 3.99A13.004 13.004 0 0 0 6.808 6.808a13.002 13.002 0 0 0 1.97 20.001A13.003 13.003 0 0 0 16 29a13.012 13.012 0 0 0 13-13zM17 26.95V19h3a.997.997 0 0 0 1-1 .997.997 0 0 0-1-1h-3v-3a2 2 0 0 1 2-2h2a.997.997 0 0 0 1-1 .997.997 0 0 0-1-1h-2a4.014 4.014 0 0 0-4 4v3h-3a.997.997 0 0 0-1 1 .997.997 0 0 0 1 1h3v7.95a11.003 11.003 0 0 1-9.989-11.455 10.996 10.996 0 0 1 18.587-7.453c2.047 1.956 3.261 4.625 3.389 7.453s-.838 5.596-2.698 7.73-4.472 3.468-7.291 3.725z"/>
    </symbol>
       <symbol id="icon-error" viewBox="0 0 24 24">
  <path d="M11 15H13V17H11V15ZM11 7H13V13H11V7ZM11.99 2C6.47 2 2 6.48 2 12C2 17.52 6.47 22 11.99 22C17.52 22 22 17.52 22 12C22 6.48 17.52 2 11.99 2ZM12 20C7.58 20 4 16.42 4 12C4 7.58 7.58 4 12 4C16.42 4 20 7.58 20 12C20 16.42 16.42 20 12 20Z" />
</symbol>
<symbol id="icon-Vector" viewBox="0 0 40 32">
<path d="M33.782 1.020c0.691-0.662 1.611-1.027 2.565-1.020s1.869 0.387 2.55 1.059c0.681 0.672 1.076 1.584 1.101 2.543s-0.321 1.891-0.966 2.598l-19.578 24.617c-0.337 0.365-0.743 0.657-1.195 0.86s-0.939 0.312-1.434 0.322c-0.495 0.009-0.986-0.082-1.445-0.268s-0.876-0.463-1.226-0.815l-12.984-13.054c-0.362-0.339-0.652-0.747-0.853-1.201s-0.309-0.944-0.318-1.441 0.082-0.99 0.267-1.451c0.185-0.461 0.461-0.879 0.81-1.231s0.766-0.628 1.224-0.814 0.949-0.277 1.443-0.269c0.494 0.009 0.981 0.118 1.433 0.32s0.858 0.494 1.195 0.857l10.275 10.325 17.042-21.83c0.031-0.038 0.063-0.074 0.098-0.109h-0.005z"></path>
</symbol>
    <symbol id="scroll-up" viewBox="0 0 346.078 346.078">
	<path  d="M0,173.111C0,77.695,77.629,0.072,173.039,0.072c95.416,0,173.039,77.623,173.039,173.039
		c0,93.405-74.407,169.722-167.06,172.89l0.376-193.565l33.588,33.588l8.437-8.437l-47.962-47.962l-48.797,48.797l8.437,8.437
		l34.369-34.363l-0.382,193.512C74.425,342.844,0,266.528,0,173.111z"/>
		</symbol>
  </defs>
</svg>
